<svg width="12" height="13" viewBox="0 0 12 13" fill="none" xmlns="http://www.w3.org/2000/svg">
<g clip-path="url(#clip0_39_3314)">
<path d="M11.3377 12.5C11.7034 12.5 12 12.2035 12 11.8377V1.1623C12 0.796484 11.7034 0.5 11.3377 0.5H0.662297C0.296438 0.5 0 0.796484 0 1.1623V11.8377C0 12.2035 0.296438 12.5 0.662297 12.5H11.3377Z" fill="#395185"/>
<mask id="path-2-inside-1_39_3314" fill="white">
<path d="M8.27972 12.5V7.85296H9.83958L10.0731 6.04194H8.27972V4.88563C8.27972 4.36128 8.42536 4.00396 9.17728 4.00396L10.1363 4.00353V2.38377C9.97036 2.36169 9.40111 2.31238 8.73886 2.31238C7.35614 2.31238 6.40955 3.15636 6.40955 4.70633V6.04194H4.8457V7.85296H6.40955V12.5H8.27972Z"/>
</mask>
<path d="M8.27972 12.5V7.85296H9.83958L10.0731 6.04194H8.27972V4.88563C8.27972 4.36128 8.42536 4.00396 9.17728 4.00396L10.1363 4.00353V2.38377C9.97036 2.36169 9.40111 2.31238 8.73886 2.31238C7.35614 2.31238 6.40955 3.15636 6.40955 4.70633V6.04194H4.8457V7.85296H6.40955V12.5H8.27972Z" fill="white"/>
<path d="M8.27972 7.85296V6.85296H7.27972V7.85296H8.27972ZM9.83958 7.85296V8.85296H10.7189L10.8314 7.98085L9.83958 7.85296ZM10.0731 6.04194L11.0649 6.16983L11.2103 5.04194H10.0731V6.04194ZM8.27972 6.04194H7.27972V7.04194H8.27972V6.04194ZM9.17728 4.00396V5.00396L9.17772 5.00396L9.17728 4.00396ZM10.1363 4.00353L10.1367 5.00353L11.1363 5.00309V4.00353H10.1363ZM10.1363 2.38377H11.1363V1.50801L10.2682 1.3925L10.1363 2.38377ZM6.40955 6.04194V7.04194H7.40955V6.04194H6.40955ZM4.8457 6.04194V5.04194H3.8457V6.04194H4.8457ZM4.8457 7.85296H3.8457V8.85296H4.8457V7.85296ZM6.40955 7.85296H7.40955V6.85296H6.40955V7.85296ZM6.40955 12.5H5.40955V13.5H6.40955V12.5ZM9.27972 12.5V7.85296H7.27972V12.5H9.27972ZM8.27972 8.85296H9.83958V6.85296H8.27972V8.85296ZM10.8314 7.98085L11.0649 6.16983L9.08132 5.91405L8.84779 7.72506L10.8314 7.98085ZM10.0731 5.04194H8.27972V7.04194H10.0731V5.04194ZM9.27972 6.04194V4.88563H7.27972V6.04194H9.27972ZM9.27972 4.88563C9.27972 4.84243 9.28125 4.81065 9.28334 4.78775C9.28543 4.76478 9.28762 4.75577 9.28729 4.75717C9.28636 4.76113 9.2711 4.82144 9.21149 4.89224C9.18243 4.92676 9.14983 4.95521 9.11741 4.97682C9.08572 4.99793 9.06083 5.00812 9.0495 5.01207C9.03142 5.01839 9.06247 5.00396 9.17728 5.00396V3.00396C8.66808 3.00396 8.08601 3.12373 7.68157 3.60409C7.30959 4.04587 7.27972 4.58062 7.27972 4.88563H9.27972ZM9.17772 5.00396L10.1367 5.00353L10.1359 3.00353L9.17684 3.00396L9.17772 5.00396ZM11.1363 4.00353V2.38377H9.1363V4.00353H11.1363ZM10.2682 1.3925C10.0523 1.36379 9.43851 1.31238 8.73886 1.31238V3.31238C9.36371 3.31238 9.88837 3.35959 10.0044 3.37503L10.2682 1.3925ZM8.73886 1.31238C7.84456 1.31238 6.98828 1.5887 6.35271 2.2169C5.71406 2.84815 5.40955 3.72462 5.40955 4.70633H7.40955C7.40955 4.13807 7.57834 3.81756 7.75866 3.63933C7.94207 3.45805 8.25044 3.31238 8.73886 3.31238V1.31238ZM5.40955 4.70633V6.04194H7.40955V4.70633H5.40955ZM6.40955 5.04194H4.8457V7.04194H6.40955V5.04194ZM3.8457 6.04194V7.85296H5.8457V6.04194H3.8457ZM4.8457 8.85296H6.40955V6.85296H4.8457V8.85296ZM5.40955 7.85296V12.5H7.40955V7.85296H5.40955ZM6.40955 13.5H8.27972V11.5H6.40955V13.5Z" fill="white" mask="url(#path-2-inside-1_39_3314)"/>
</g>
<defs>
<clipPath id="clip0_39_3314">
<rect width="12" height="12" fill="white" transform="translate(0 0.5)"/>
</clipPath>
</defs>
</svg>
