<svg width="13" height="13" viewBox="0 0 13 13" fill="none" xmlns="http://www.w3.org/2000/svg">
<g clip-path="url(#clip0_39_3317)">
<path d="M3.133 5.3825C3.36694 4.67472 3.81843 4.05891 4.42305 3.6229C5.02768 3.18689 5.75456 2.95297 6.5 2.9545C7.345 2.9545 8.10899 3.2545 8.70899 3.7455L10.455 2C9.391 1.0725 8.0275 0.5 6.5 0.5C4.135 0.5 2.099 1.849 1.12 3.825L3.133 5.3825Z" fill="#EA4335"/>
<path d="M8.52003 9.50653C7.97503 9.85803 7.28303 10.0455 6.50003 10.0455C5.75757 10.0471 5.03343 9.815 4.43015 9.38221C3.82687 8.94942 3.375 8.33784 3.13853 7.63403L1.11853 9.16753C1.61415 10.1707 2.38116 11.0147 3.33244 11.6038C4.28372 12.1929 5.38113 12.5034 6.50003 12.5C7.96653 12.5 9.36753 11.9785 10.417 11L8.52053 9.50653H8.52003Z" fill="#34A853"/>
<path d="M10.417 11.0001C11.5145 9.97606 12.227 8.45206 12.227 6.50006C12.227 6.14506 12.1725 5.76356 12.091 5.40906H6.5V7.72756H9.718C9.5595 8.50706 9.133 9.11056 8.5205 9.50656L10.417 11.0001Z" fill="#4A90E2"/>
<path d="M3.13856 7.63395C3.01624 7.26841 2.95409 6.88542 2.95456 6.49995C2.95456 6.10895 3.01706 5.73345 3.13306 5.38245L1.12006 3.82495C0.708247 4.65629 0.49596 5.57221 0.500058 6.49995C0.500058 7.45995 0.722558 8.36495 1.11856 9.16745L3.13856 7.63395Z" fill="#FBBC05"/>
</g>
<defs>
<clipPath id="clip0_39_3317">
<rect width="12" height="12" fill="white" transform="translate(0.5 0.5)"/>
</clipPath>
</defs>
</svg>
