<svg width="51" height="51" viewBox="0 0 51 51" fill="none" xmlns="http://www.w3.org/2000/svg">
<path d="M42.5 14.3438C45.7274 14.3438 48.3438 11.7274 48.3438 8.5C48.3438 5.27259 45.7274 2.65625 42.5 2.65625C39.2726 2.65625 36.6562 5.27259 36.6562 8.5C36.6562 11.7274 39.2726 14.3438 42.5 14.3438Z" fill="white"/>
<path d="M40.46 17.3187C37.1238 16.5962 34.4038 13.8763 33.6813 10.54C33.405 9.24375 33.3837 7.99 33.6175 6.8C33.8937 5.4825 32.9163 4.25 31.5563 4.25H14.875C9.01 4.25 4.25 9.01 4.25 14.875V29.6437C4.25 35.5087 9.01 40.2688 14.875 40.2688H18.0625C18.6575 40.2688 19.4225 40.6512 19.7625 41.1188L22.95 45.3475C24.3525 47.2175 26.6475 47.2175 28.05 45.3475L31.2375 41.1188C31.6412 40.5875 32.2575 40.2688 32.9375 40.2688H36.1462C42.0112 40.2688 46.75 35.53 46.75 29.665V19.4437C46.75 18.105 45.5175 17.1275 44.2 17.3825C43.01 17.595 41.7563 17.595 40.46 17.3187ZM17 25.5C15.81 25.5 14.875 24.5438 14.875 23.375C14.875 22.2062 15.81 21.25 17 21.25C18.1687 21.25 19.125 22.2062 19.125 23.375C19.125 24.5438 18.19 25.5 17 25.5ZM25.5 25.5C24.31 25.5 23.375 24.5438 23.375 23.375C23.375 22.2062 24.31 21.25 25.5 21.25C26.6688 21.25 27.625 22.2062 27.625 23.375C27.625 24.5438 26.69 25.5 25.5 25.5ZM34 25.5C32.81 25.5 31.875 24.5438 31.875 23.375C31.875 22.2062 32.81 21.25 34 21.25C35.1688 21.25 36.125 22.2062 36.125 23.375C36.125 24.5438 35.19 25.5 34 25.5Z" fill="white"/>
</svg>
