<svg width="51" height="51" viewBox="0 0 51 51" fill="none" xmlns="http://www.w3.org/2000/svg">
<path d="M34.4038 4.25H16.5962C8.86125 4.25 4.25 8.86125 4.25 16.5962V34.3825C4.25 42.1388 8.86125 46.75 16.5962 46.75H34.3825C42.1175 46.75 46.7287 42.1388 46.7287 34.4038V16.5962C46.75 8.86125 42.1388 4.25 34.4038 4.25ZM35.6575 20.6125L23.6087 32.6612C23.3112 32.9587 22.9075 33.1287 22.4825 33.1287C22.0575 33.1287 21.6537 32.9587 21.3563 32.6612L15.3425 26.6475C14.7262 26.0312 14.7262 25.0112 15.3425 24.395C15.9587 23.7787 16.9787 23.7787 17.595 24.395L22.4825 29.2825L33.405 18.36C34.0212 17.7438 35.0413 17.7438 35.6575 18.36C36.2738 18.9763 36.2738 19.975 35.6575 20.6125Z" fill="white"/>
</svg>
