<svg width="80" height="80" viewBox="0 0 80 80" fill="none" xmlns="http://www.w3.org/2000/svg">
<path d="M23.7333 25.0667C22.9654 25.0667 22.2006 25.0986 21.4406 25.1758L24.0852 18.8288L24.2138 18.5395L24.2259 18.5123L24.2363 18.4845L24.4284 17.9723C24.487 17.8349 24.5217 17.7474 24.5462 17.6855C24.5792 17.6021 24.5939 17.565 24.6242 17.5145L24.6585 17.4573L24.6849 17.396C26.594 12.9689 28.5407 10.2639 30.8169 8.87436C32.8151 7.65448 35.2189 7.3606 38.4156 8.05591L31.1079 25.0667H23.7333Z" fill="#34B67F" stroke="#34B67F" stroke-width="2"/>
<path d="M56.2667 25.0666H36.9188L43.5354 9.68679C43.7183 9.75988 43.9135 9.83503 44.1129 9.90262L51.4455 12.9883L51.4503 12.9903C55.4891 14.6649 58.1697 16.3497 59.7814 18.2862C60.07 18.6714 60.3103 19.0039 60.5483 19.3907L60.5535 19.399L60.5588 19.4073C60.8236 19.8192 61.0022 20.1894 61.1004 20.5576L61.1208 20.6339L61.1529 20.706C61.2717 20.9734 61.3437 21.1729 61.3905 21.3835L61.3978 21.4164L61.4073 21.4487C61.7735 22.6939 61.8671 24.1096 61.6424 25.7106C59.8795 25.2889 58.0871 25.0666 56.2667 25.0666Z" fill="#34B67F" stroke="#34B67F" stroke-width="2"/>
<path d="M42.7333 57.8432V55.8524L42.7855 55.871C43.0007 55.9539 43.1252 56.0061 43.2156 56.0558C43.2564 56.0781 43.2787 56.094 43.2903 56.1033C43.3003 56.1113 43.3032 56.1151 43.3036 56.1156L43.3036 56.1157C43.3039 56.1159 43.3084 56.1214 43.3158 56.138C43.3238 56.1557 43.3365 56.1893 43.3496 56.246C43.3772 56.3653 43.4 56.5574 43.4 56.8667C43.4 57.4031 43.0625 57.7525 42.7333 57.8432Z" fill="#34B67F" stroke="#34B67F" stroke-width="2"/>
<path d="M17.7292 33.285L17.7309 33.2842C19.6004 32.4741 21.5979 32.0667 23.7333 32.0667H56.2667C57.8008 32.0667 59.2718 32.2853 60.6821 32.692C66.9395 34.6039 71.5333 40.4249 71.5333 47.3333V53.8333C71.5333 54.4703 71.5015 55.1126 71.4681 55.7474C71.1605 61.4076 69.4414 65.5043 66.4514 68.1988C63.4524 70.9013 59.0202 72.3333 53 72.3333H27C26.2217 72.3333 25.4999 72.2712 24.7627 72.1751L24.7311 72.1709L24.6992 72.1688C19.5612 71.8295 15.7527 70.2972 13.1399 67.6882C10.5269 65.079 8.98649 61.27 8.63096 56.131L8.62905 56.1034L8.62562 56.076C8.52855 55.2994 8.46667 54.5772 8.46667 53.8333V47.3333C8.46667 41.0481 12.2814 35.6332 17.7292 33.285ZM48.8667 56.8667C48.8667 54.8876 48.2804 53.4735 47.3869 52.4749C46.5151 51.5005 45.4313 51.0133 44.5984 50.7233C44.5973 50.7229 44.5963 50.7225 44.5952 50.7222L42.7333 50.0607V46.365C43.1146 46.6302 43.4 47.1057 43.4 47.7C43.4 49.2189 44.6144 50.4333 46.1333 50.4333C47.6523 50.4333 48.8667 49.2189 48.8667 47.7C48.8667 44.0816 46.1794 41.061 42.7239 40.7023C42.6081 39.2931 41.4411 38.2 40 38.2C38.5704 38.2 37.4106 39.2757 37.2791 40.6685C33.8385 40.7522 31.1333 43.6284 31.1333 47.1333C31.1333 49.1124 31.7196 50.5265 32.6131 51.5251C33.4849 52.4995 34.5687 52.9867 35.4016 53.2767C35.4027 53.2771 35.4038 53.2774 35.4048 53.2778L37.2667 53.9393V57.635C36.8854 57.3698 36.6 56.8943 36.6 56.3C36.6 54.781 35.3856 53.5667 33.8667 53.5667C32.3477 53.5667 31.1333 54.781 31.1333 56.3C31.1333 59.9184 33.8206 62.939 37.2761 63.2977C37.3919 64.7069 38.5589 65.8 40 65.8C41.4296 65.8 42.5894 64.7243 42.7209 63.3314C46.1615 63.2478 48.8667 60.3716 48.8667 56.8667Z" fill="#34B67F" stroke="#34B67F" stroke-width="2"/>
<path d="M37.2145 48.129C36.9993 48.0461 36.8749 47.9939 36.7844 47.9442C36.7436 47.9218 36.7213 47.9059 36.7097 47.8967C36.6997 47.8887 36.6968 47.8849 36.6964 47.8844L36.6964 47.8843L36.6963 47.8843C36.6959 47.8838 36.6915 47.8782 36.6842 47.862C36.6762 47.8443 36.6635 47.8107 36.6504 47.7539C36.6228 47.6347 36.6 47.4426 36.6 47.1333C36.6 46.5825 36.9259 46.2396 37.2667 46.1543V48.1476L37.2145 48.129Z" fill="#34B67F" stroke="#34B67F" stroke-width="2"/>
</svg>
